<svg width="38" height="38" viewBox="0 0 38 38" fill="none" xmlns="http://www.w3.org/2000/svg">
<path d="M16.4044 10.8642L16.7381 10.8549H30.3095C33.4455 10.8549 36.0082 13.3094 36.1812 16.4021L36.1905 16.7358V19.5602C35.3866 18.7887 34.4733 18.1303 33.4762 17.6107V16.7358C33.4762 14.9869 32.0584 13.5692 30.3095 13.5692H16.7381C15.0766 13.5692 13.714 14.8487 13.5819 16.4761L13.5714 16.7358V30.3073C13.5714 31.9687 14.851 33.3313 16.4784 33.4634L16.7381 33.4739H17.6095C18.1289 34.471 18.7869 35.3842 19.558 36.1882H16.7381C13.6021 36.1882 11.0395 33.7337 10.8665 30.641L10.8571 30.3073V16.7358C10.8571 13.5999 13.3117 11.0372 16.4044 10.8642ZM24.5766 4.04037L24.672 4.36031L25.925 9.044H23.1149L22.0502 5.06282C21.5975 3.37351 19.8611 2.371 18.1718 2.82365L5.06282 6.33619C3.46242 6.76502 2.47843 8.34602 2.76416 9.94762L2.82365 10.2145L6.33619 23.3235C6.68388 24.6211 7.78901 25.5135 9.04843 25.6525L9.04863 28.3763C6.69402 28.2378 4.5774 26.6805 3.80976 24.346L3.71439 24.0261L0.201848 10.9171C-0.609798 7.88795 1.09783 4.77732 4.04037 3.80976L4.36031 3.71439L17.4693 0.201848C20.4984 -0.609798 23.609 1.09783 24.5766 4.04037ZM38 28.0476C38 22.5511 33.5442 18.0952 28.0476 18.0952C22.5511 18.0952 18.0952 22.5511 18.0952 28.0476C18.0952 33.5442 22.5511 38 28.0476 38C33.5442 38 38 33.5442 38 28.0476ZM27.885 21.7275L28.0476 21.7129L28.2103 21.7275C28.5796 21.7945 28.8708 22.0857 28.9378 22.455L28.9524 22.6177L28.9517 27.1415L33.4845 27.1429L33.6471 27.1574C34.0164 27.2245 34.3076 27.5157 34.3746 27.885L34.3892 28.0476L34.3746 28.2103C34.3076 28.5796 34.0164 28.8708 33.6471 28.9378L33.4845 28.9524L28.9536 28.951L28.9544 33.4825L28.9398 33.6451C28.8728 34.0144 28.5816 34.3056 28.2123 34.3727L28.0496 34.3873L27.887 34.3727C27.5177 34.3056 27.2265 34.0144 27.1594 33.6451L27.1449 33.4825L27.144 28.951L22.6148 28.9524L22.4522 28.9378C22.0829 28.8708 21.7916 28.5796 21.7246 28.2103L21.71 28.0476L21.7246 27.885C21.7916 27.5157 22.0829 27.2245 22.4522 27.1574L22.6148 27.1429L27.1422 27.1415L27.1429 22.6177L27.1574 22.455C27.2245 22.0857 27.5157 21.7945 27.885 21.7275Z" fill="#005FB8"/>
</svg>
