<svg width="36" height="36" viewBox="0 0 36 36" fill="none" xmlns="http://www.w3.org/2000/svg">
<path d="M11.4575 25.5099C11.9086 25.8293 12.4477 26.0008 13.0004 26.001C13.5504 26.0028 14.0874 25.8341 14.5374 25.518C14.9423 25.2301 15.2596 24.8359 15.4544 24.379L16.6904 20.61C16.9926 19.7015 17.5024 18.876 18.1794 18.199C18.8564 17.5219 19.6819 17.0121 20.5904 16.71L24.2214 15.527C24.7425 15.3432 25.1937 15.0024 25.5128 14.5514C25.832 14.1004 26.0034 13.5615 26.0034 13.009C26.0034 12.4565 25.832 11.9176 25.5128 11.4666C25.1937 11.0156 24.7425 10.6747 24.2214 10.491L20.5214 9.29799C19.6148 8.99431 18.7906 8.48504 18.1134 7.80999C17.4391 7.13556 16.9301 6.31409 16.6264 5.40999L15.4474 1.78099C15.2639 1.25982 14.9228 0.80865 14.4714 0.48999C14.0181 0.176655 13.48 0.00881958 12.9289 0.00881958C12.3778 0.00881958 11.8398 0.176655 11.3864 0.48999C10.9269 0.815338 10.5815 1.2772 10.3994 1.80999L9.20643 5.47699C8.90626 6.34995 8.41458 7.1447 7.76743 7.80299C7.10603 8.47382 6.29974 8.98421 5.41043 9.29499L1.78343 10.473C1.39406 10.6103 1.04184 10.8361 0.754423 11.1325C0.467005 11.4289 0.252217 11.7879 0.126926 12.1813C0.00163561 12.5747 -0.0307459 12.9918 0.0323244 13.3999C0.0953952 13.8079 0.2522 14.1958 0.490426 14.533C0.816344 14.9928 1.27894 15.3382 1.81243 15.52L5.40042 16.685C6.3093 16.9894 7.13501 17.5009 7.81243 18.179C7.9937 18.3615 8.16368 18.5548 8.32143 18.758C8.75074 19.3099 9.08252 19.9312 9.30243 20.595L10.4814 24.218C10.6653 24.7392 11.0063 25.1906 11.4575 25.5099ZM13.1624 23.388L13.1004 23.469C13.0707 23.4881 13.0348 23.4978 12.9995 23.4967C12.9641 23.4956 12.93 23.4839 12.9014 23.463C12.8809 23.4492 12.8633 23.4315 12.8494 23.411L11.6784 19.811C11.371 18.876 10.9056 18.0007 10.3024 17.223C10.0817 16.937 9.84289 16.6654 9.58743 16.41C8.63082 15.4552 7.46505 14.7362 6.18243 14.31L2.61343 13.156C2.58014 13.1432 2.5513 13.1209 2.53043 13.092C2.5098 13.0628 2.49927 13.0277 2.50043 12.992C2.50041 12.9561 2.5116 12.9212 2.53243 12.892C2.54681 12.8722 2.56438 12.855 2.58442 12.841L6.20443 11.666C7.46617 11.2289 8.61038 10.5073 9.54843 9.55699C10.4602 8.62848 11.1528 7.50779 11.5754 6.27699L12.7634 2.61599C12.7752 2.58241 12.7973 2.55338 12.8264 2.53299C12.856 2.51309 12.8908 2.50245 12.9264 2.50245C12.9621 2.50245 12.9969 2.51309 13.0264 2.53299C13.0471 2.54772 13.0651 2.566 13.0794 2.58699L14.2514 6.18699C14.6779 7.46201 15.3944 8.62071 16.3444 9.57199C17.2998 10.5259 18.4637 11.2448 19.7444 11.672L23.3444 12.84L23.4104 12.859C23.4338 12.8712 23.4539 12.8887 23.4694 12.91C23.4898 12.9393 23.5007 12.9743 23.5004 13.01C23.5008 13.0456 23.4904 13.0805 23.4704 13.11C23.4562 13.1286 23.4397 13.1454 23.4214 13.16L19.8104 14.331C18.5314 14.7556 17.3691 15.473 16.4163 16.4261C15.4635 17.3793 14.7465 18.5418 14.3224 19.821L13.1624 23.388ZM26.8759 34.6425C27.2045 34.8753 27.5972 35.0006 27.9999 35.001L28.0049 35.004C28.4127 35.0039 28.8101 34.8756 29.141 34.6373C29.4719 34.399 29.7195 34.0627 29.8489 33.676L30.4179 31.926C30.5355 31.5762 30.7319 31.258 30.9919 30.996C31.252 30.7366 31.5686 30.5408 31.9169 30.424L33.7069 29.842C33.9905 29.7419 34.2471 29.5773 34.4564 29.3613C34.6657 29.1453 34.822 28.8836 34.9131 28.597C35.0042 28.3103 35.0276 28.0064 34.9814 27.7092C34.9352 27.4119 34.8207 27.1295 34.6469 26.884C34.3998 26.5382 34.0471 26.2821 33.6419 26.154L31.8849 25.585C31.5357 25.4683 31.2184 25.2721 30.9581 25.0118C30.6978 24.7514 30.5015 24.4342 30.3849 24.085L29.8029 22.296C29.6697 21.9167 29.4215 21.5885 29.0929 21.357C28.8453 21.1815 28.56 21.0663 28.2599 21.0208C27.9598 20.9753 27.6532 21.0006 27.3647 21.0948C27.0761 21.189 26.8136 21.3494 26.5982 21.5632C26.3827 21.7769 26.2203 22.0382 26.1239 22.326L25.5519 24.083C25.4386 24.4268 25.2483 24.7403 24.9954 24.9994C24.7426 25.2584 24.4339 25.4564 24.0929 25.578L22.3019 26.16C21.9199 26.2946 21.5895 26.5451 21.3568 26.8765C21.1241 27.208 21.0008 27.6039 21.004 28.0088C21.0072 28.4138 21.1368 28.8077 21.3746 29.1354C21.6125 29.4632 21.9468 29.7084 22.3309 29.837L24.0829 30.407C24.4329 30.5238 24.7508 30.7208 25.0113 30.9823C25.2717 31.2438 25.4674 31.5625 25.5829 31.913L26.1649 33.701C26.2989 34.0808 26.5472 34.4097 26.8759 34.6425ZM24.8609 28.04L24.7429 28.001L24.8839 27.952C25.5951 27.7065 26.2398 27.2996 26.7675 26.7634C27.2953 26.2271 27.6917 25.576 27.9259 24.861L27.9659 24.74L28.0069 24.868C28.2459 25.5881 28.6498 26.2423 29.1865 26.7786C29.7231 27.315 30.3777 27.7185 31.0979 27.957L31.2539 28.007L31.1329 28.047C30.4117 28.2859 29.7564 28.6902 29.2193 29.2276C28.6823 29.765 28.2784 30.4206 28.0399 31.142L28.0009 31.263L27.9609 31.14C27.7223 30.417 27.3176 29.76 26.7793 29.2216C26.2409 28.6832 25.5839 28.2786 24.8609 28.04Z" fill="#005FB8"/>
</svg>
